<svg xmlns="http://www.w3.org/2000/svg" xmlns:xlink="http://www.w3.org/1999/xlink" version="1.1" id="Your_Icon" x="0px" y="0px" width="100px" height="100px" viewBox="0 0 100 100" enable-background="new 0 0 100 100" xml:space="preserve">
<path d="M34.898,21.934c-16.189,0-29.35,13.16-29.35,29.35c0,16.181,13.16,29.341,29.35,29.341c16.18,0,29.34-13.16,29.34-29.341  C64.238,35.094,51.078,21.934,34.898,21.934z M59.607,47.894c-1.271-1.38-3.25-2.44-5.648-3.01c-1.961-5.84-6.541-10.49-12.33-12.55  c-0.551-2.42-1.621-4.43-3-5.73C49.518,28.234,58.129,36.944,59.607,47.894z M54.618,47.364c2.61,0.89,4.39,2.479,4.39,4.25  c0,1.811-1.85,3.421-4.549,4.3c0.359-1.489,0.549-3.039,0.549-4.63C55.008,49.943,54.879,48.634,54.618,47.364z M15.318,55.895  c-2.66-0.881-4.49-2.49-4.49-4.28c0-1.76,1.75-3.34,4.33-4.229c-0.25,1.26-0.38,2.569-0.38,3.899  C14.778,52.874,14.959,54.413,15.318,55.895z M15.879,51.283c0-1.459,0.17-2.89,0.489-4.26c1.04-0.26,2.181-0.41,3.36-0.42  c-0.45,1.48-0.7,3.051-0.7,4.68c0,1.869,0.33,3.671,0.931,5.341c-1.201,0-2.361-0.142-3.421-0.392  C16.108,54.652,15.879,52.993,15.879,51.283z M49.199,44.424h-0.01c-1.511-3.14-4.021-5.71-7.12-7.28v-0.01  c0.02-0.25-0.04-2.65-0.18-3.53c4.99,1.97,8.939,6,10.82,11.03C51.799,44.484,49.409,44.404,49.199,44.424z M49.889,51.283  c0,1.869-0.34,3.66-0.971,5.311c-4.55-0.26-8.24-2.431-8.24-4.979c0-0.08,0-0.171,0.011-0.25c0.239-2.479,3.95-4.55,8.45-4.75  C49.629,48.084,49.889,49.654,49.889,51.283z M42.008,38.084c2.681,1.45,4.86,3.689,6.24,6.4h0.01c0.01,0.01,0.01,0.01,0,0.02  c-0.01-0.01-0.01-0.01-0.01-0.02c-3.74,0.31-6.85,1.75-8.49,3.77c-0.41-0.67-0.97-1.25-1.619-1.7  C40.198,44.954,41.678,41.844,42.008,38.084z M34.889,54.823c-1.95,0-3.541-1.591-3.541-3.54c0-1.959,1.591-3.549,3.541-3.549  c1.959,0,3.55,1.59,3.55,3.549C38.438,53.232,36.848,54.823,34.889,54.823z M39.879,65.413c-1.561,0.562-3.24,0.858-4.99,0.858  s-3.43-0.299-4.99-0.858c0.22-4.569,2.359-8.302,4.89-8.399h0.101C37.469,57.014,39.668,60.784,39.879,65.413z M29.898,37.144v-0.01  c1.561-0.55,3.24-0.85,4.99-0.85s3.439,0.3,5,0.86c-0.221,4.57-2.36,8.3-4.9,8.4h-0.1C32.318,45.544,30.118,41.773,29.898,37.144z   M34.889,35.414c-1.75,0-3.43,0.29-5.01,0.81c0.01-1.19,0.159-2.34,0.409-3.39c1.47-0.37,3.011-0.57,4.601-0.57  c1.59,0,3.129,0.2,4.609,0.57c0.25,1.05,0.4,2.2,0.41,3.39C38.328,35.704,36.639,35.414,34.889,35.414z M31.648,46.554  c-0.641,0.44-1.18,1-1.6,1.66c-1.66-2.01-4.771-3.43-8.511-3.74c1.38-2.71,3.57-4.94,6.229-6.39  C28.108,41.854,29.578,44.954,31.648,46.554z M20.868,56.594c-0.63-1.648-0.97-3.439-0.97-5.311c0-1.629,0.26-3.199,0.74-4.669  c0-0.01,0.01-0.01,0.01-0.021c0,0.01,0,0.01,0,0.021c4.529,0.18,8.26,2.259,8.5,4.75c0.01,0.079,0.01,0.17,0.01,0.25  C29.158,54.174,25.448,56.344,20.868,56.594z M27.709,37.144c-3.101,1.57-5.611,4.14-7.111,7.28c-0.199-0.02-2.599,0.06-3.529,0.22  c1.88-5.03,5.84-9.06,10.82-11.04C27.748,34.484,27.689,36.894,27.709,37.144z M19.988,58.823c0.32,0,0.63-0.011,0.939-0.028  c1.531,2.84,3.9,5.159,6.781,6.62c-0.021,0.25-0.031,0.51-0.031,0.771c0,0.959,0.07,1.891,0.211,2.771  c-4.74-1.881-8.551-5.62-10.541-10.32C18.188,58.754,19.078,58.823,19.988,58.823z M27.768,64.475c-2.449-1.33-4.5-3.33-5.889-5.75  c3.779-0.381,6.879-1.91,8.42-4.029c0.369,0.51,0.83,0.949,1.35,1.311C29.578,57.604,28.098,60.714,27.768,64.475z M34.889,67.145  c1.75,0,3.439-0.291,5.02-0.811c-0.01,1.188-0.16,2.34-0.4,3.391c-1.479,0.369-3.029,0.569-4.619,0.569  c-1.59,0-3.141-0.2-4.61-0.569c-0.24-1.051-0.39-2.201-0.399-3.391C31.459,66.854,33.139,67.145,34.889,67.145z M38.139,56.004  c0.529-0.359,1-0.82,1.379-1.341c1.531,2.121,4.611,3.66,8.391,4.051c-1.391,2.42-3.439,4.42-5.9,5.761  C41.678,60.714,40.209,57.604,38.139,56.004z M42.098,66.184c0-0.26-0.01-0.51-0.029-0.76v-0.011c2.88-1.459,5.26-3.779,6.79-6.619  c0.33,0.021,0.659,0.029,0.989,0.029c0.89,0,1.75-0.062,2.57-0.181c-1.97,4.689-5.779,8.431-10.529,10.312  C42.028,68.073,42.098,67.145,42.098,66.184z M49.848,56.624c-0.01,0-0.01,0-0.02,0c0.6-1.67,0.93-3.472,0.93-5.341  c0-1.629-0.25-3.199-0.699-4.68c1.189,0.01,2.32,0.15,3.359,0.4c0.32,1.38,0.49,2.81,0.49,4.279c0,1.721-0.229,3.391-0.66,4.971  C52.188,56.493,51.038,56.624,49.848,56.624z M34.889,27.214c1.779,0,3.369,1.79,4.26,4.41c-1.37-0.3-2.801-0.46-4.26-0.46  c-1.461,0-2.881,0.16-4.25,0.46C31.528,29.004,33.118,27.214,34.889,27.214z M31.158,26.604c-1.391,1.3-2.46,3.31-3.02,5.73  c-5.791,2.07-10.36,6.72-12.32,12.56c-2.4,0.58-4.38,1.66-5.65,3.05C11.629,36.974,20.248,28.244,31.158,26.604z M10.288,55.413  c1.32,1.381,3.351,2.431,5.79,2.979c2.08,5.5,6.51,9.851,12.061,11.83c0.56,2.42,1.629,4.43,3.02,5.729  C20.508,74.354,12.049,66.004,10.288,55.413z M34.889,75.344c-1.771,0-3.36-1.779-4.25-4.41c1.369,0.301,2.789,0.461,4.25,0.461  c1.459,0,2.89-0.16,4.26-0.461C38.258,73.563,36.658,75.344,34.889,75.344z M38.629,75.954c1.379-1.302,2.449-3.312,3.01-5.729  c5.55-1.979,9.979-6.33,12.07-11.82c2.43-0.529,4.459-1.58,5.779-2.938C57.709,66.034,49.258,74.354,38.629,75.954z"/>
<path d="M85.146,80.466c-3.517,0.001-6.238-2.434-8.198-4.186c-1.649-1.474-3.452-2.063-5.356-1.755  c-2.429,0.396-4.801,2.244-6.345,4.945l-3.474-1.984c2.139-3.739,5.567-6.321,9.175-6.907c3.116-0.506,6.108,0.437,8.665,2.72  c3.186,2.848,4.921,3.854,7.414,2.715c1.688-0.771,3.266-2.459,4.332-4.634l3.592,1.763c-1.488,3.032-3.713,5.346-6.264,6.512  C87.43,80.227,86.25,80.466,85.146,80.466z"/>
<path d="M85.146,32.711c-3.517,0-6.238-2.433-8.198-4.185c-1.649-1.474-3.452-2.062-5.356-1.754  c-2.429,0.395-4.801,2.243-6.345,4.945l-3.474-1.985c2.139-3.739,5.567-6.321,9.175-6.908c3.116-0.505,6.108,0.436,8.665,2.72  c3.186,2.846,4.916,3.853,7.412,2.714c1.688-0.771,3.268-2.459,4.334-4.633l3.592,1.762c-1.488,3.034-3.713,5.346-6.264,6.51  C87.428,32.471,86.25,32.711,85.146,32.711z"/>
<path d="M86.295,56.22c-1.852,0-4.285-0.649-6.777-3.176c-1.213-1.228-2.543-1.729-3.955-1.496  c-1.787,0.296-3.525,1.779-4.539,3.873l-3.602-1.741c1.594-3.294,4.395-5.565,7.485-6.078c2.696-0.446,5.339,0.49,7.456,2.633  c1.014,1.024,2.604,2.197,4.438,1.953c1.699-0.226,3.338-1.59,4.614-3.842l3.479,1.972c-1.908,3.371-4.599,5.443-7.568,5.837  C87.01,56.193,86.663,56.22,86.295,56.22z"/>
</svg>