<?xml version="1.0" encoding="utf-8"?>
<!-- Generator: Adobe Illustrator 15.1.0, SVG Export Plug-In . SVG Version: 6.00 Build 0)  -->
<!DOCTYPE svg PUBLIC "-//W3C//DTD SVG 1.1//EN" "http://www.w3.org/Graphics/SVG/1.1/DTD/svg11.dtd">
<svg version="1.1" id="Layer_1" xmlns="http://www.w3.org/2000/svg" xmlns:xlink="http://www.w3.org/1999/xlink" x="0px" y="0px"
	 width="82.55px" height="100px" viewBox="0 0 82.55 100" enable-background="new 0 0 82.55 100" xml:space="preserve">
<path fill="#010101" d="M69.747,6.043H22.701l1.554-1.393l1.432-1.282H70.96C70.501,4.153,70.095,5.052,69.747,6.043z"/>
<path fill="#010101" d="M75.504,0H22.701C11.229,0,1.932,9.298,1.932,20.768c0,0.008,0,0.015,0,0.023v32.101
	c0,7.394,5.619,13.474,12.818,14.204v15.219c0,6.034-5.252,14.764-14.75,14.764V100c11.529,0,17.67-10.271,17.67-17.685v-15.22
	c6.972-0.708,12.46-6.433,12.8-13.509c0.184,0.041,0.373,0.067,0.565,0.067c1.078,0,2.054-0.672,2.751-1.754
	c-0.674-1.049-1.092-2.48-1.092-4.06c0-1.579,0.417-3.009,1.092-4.059c-0.697-1.082-1.674-1.756-2.751-1.756
	c-0.186,0-0.368,0.026-0.547,0.065v-2.071c5.204-2.108,9.357-6.261,11.465-11.465h33.55c3.892,0,7.047-6.393,7.047-14.278
	C82.55,6.392,79.396,0,75.504,0z M22.701,33.487c-7.024,0-12.718-5.694-12.718-12.719c0-7.024,5.694-12.718,12.718-12.718
	s12.718,5.694,12.718,12.718C35.418,27.793,29.725,33.487,22.701,33.487z M72.988,5.83h5.03c0.284,0.629,0.548,1.354,0.777,2.163
	H72.21C72.442,7.185,72.705,6.459,72.988,5.83z M71.605,10.914h7.797c0.094,0.686,0.163,1.405,0.199,2.163h-8.193
	C71.44,12.32,71.512,11.6,71.605,10.914z M77.776,23.245h-4.545c-0.311-0.613-0.606-1.34-0.868-2.163h6.279
	C78.382,21.904,78.086,22.631,77.776,23.245z M79.324,18.161h-7.642c-0.11-0.683-0.19-1.406-0.242-2.164h8.125
	C79.516,16.755,79.435,17.479,79.324,18.161z"/>
<path fill="#010101" d="M11.884,16.549c0-0.807,0.652-1.46,1.459-1.46h18.713c0.806,0,1.459,0.654,1.459,1.46
	c0,0.806-0.653,1.459-1.459,1.459H13.343C12.537,18.009,11.884,17.355,11.884,16.549z"/>
<path fill="#010101" d="M33.515,20.768c0,0.806-0.652,1.461-1.459,1.461H13.343c-0.806,0-1.46-0.654-1.46-1.461
	s0.653-1.46,1.46-1.46h18.714C32.863,19.308,33.515,19.961,33.515,20.768z"/>
<path fill="#010101" d="M33.515,24.771c0,0.806-0.652,1.459-1.459,1.459H13.343c-0.806,0-1.46-0.653-1.46-1.459
	c0-0.807,0.653-1.461,1.46-1.461h18.714C32.863,23.309,33.515,23.964,33.515,24.771z"/>
</svg>
