<svg xmlns="http://www.w3.org/2000/svg" xmlns:xlink="http://www.w3.org/1999/xlink" version="1.1" id="Layer_1" x="0px" y="0px" width="100px" height="100px" viewBox="0 0 100 100" enable-background="new 0 0 100 100" xml:space="preserve">
<g>
	<path d="M76.316,8.037c-3.753,0-6.807,3.053-6.807,6.807c0,3.753,3.054,6.807,6.807,6.807s6.807-3.054,6.807-6.807   C83.123,11.09,80.069,8.037,76.316,8.037z M76.316,19.207c-2.406,0-4.363-1.958-4.363-4.363c0-0.819,0.24-1.577,0.635-2.233   l5.662,6.124C77.664,19.026,77.015,19.207,76.316,19.207z M80.045,17.076l-5.662-6.124c0.586-0.292,1.236-0.472,1.934-0.472   c2.405,0,4.363,1.958,4.363,4.363C80.68,15.662,80.438,16.42,80.045,17.076z"/>
	<path d="M60.54,8.979H20.833c-2.021,0-3.666,1.644-3.666,3.666v4.398c0,2.021,1.644,3.665,3.666,3.665H60.54   c2.021,0,3.665-1.644,3.665-3.665v-4.398C64.205,10.623,62.561,8.979,60.54,8.979z M26.98,18.264h-6.147   c-0.674,0-1.222-0.548-1.222-1.222v-4.398c0-0.674,0.548-1.222,1.222-1.222h6.147V18.264z M39.465,18.264H29.424v-6.842h10.041   V18.264z M52.584,18.264H41.908v-6.842h10.676V18.264z M61.762,17.042c0,0.674-0.548,1.222-1.222,1.222h-5.513v-6.842h5.513   c0.674,0,1.222,0.548,1.222,1.222V17.042z"/>
	<path d="M90.51,4.809c0-2.021-1.644-3.665-3.665-3.665H13.155c-2.021,0-3.665,1.644-3.665,3.665v20.069   c0,0.818,0.279,1.566,0.733,2.177c-0.451,0.51-0.733,1.173-0.733,1.906v67c0,1.596,1.298,2.895,2.895,2.895h75.23   c1.597,0,2.895-1.299,2.895-2.895v-67c0-0.733-0.283-1.396-0.733-1.906c0.455-0.611,0.733-1.359,0.733-2.177V4.809z M88.066,95.962   c0,0.249-0.202,0.45-0.451,0.45h-75.23c-0.249,0-0.451-0.201-0.451-0.45v-67c0-0.249,0.203-0.451,0.451-0.451h0.444   c0.109,0.01,0.215,0.033,0.327,0.033h73.689c0.111,0,0.217-0.023,0.326-0.033h0.444c0.249,0,0.451,0.202,0.451,0.451V95.962z    M88.066,24.878c0,0.58-0.407,1.064-0.95,1.189H12.883c-0.543-0.125-0.95-0.609-0.95-1.189V4.809c0-0.673,0.548-1.222,1.222-1.222   h73.689c0.674,0,1.222,0.548,1.222,1.222V24.878z"/>
</g>
</svg>