<svg xmlns:dc="http://purl.org/dc/elements/1.1/" xmlns:cc="http://creativecommons.org/ns#" xmlns:rdf="http://www.w3.org/1999/02/22-rdf-syntax-ns#" xmlns:svg="http://www.w3.org/2000/svg" xmlns="http://www.w3.org/2000/svg" xmlns:sodipodi="http://sodipodi.sourceforge.net/DTD/sodipodi-0.dtd" xmlns:inkscape="http://www.inkscape.org/namespaces/inkscape" width="100" height="100" viewBox="0 0 80 80" version="1.1" id="svg2" inkscape:version="0.48.2 r9819" sodipodi:docname="blank.svg">
  <metadata id="metadata10">
    <rdf:RDF>
      <cc:Work rdf:about="">
        <dc:format>image/svg+xml</dc:format>
        <dc:type rdf:resource="http://purl.org/dc/dcmitype/StillImage"/>
        <dc:title/>
      </cc:Work>
    </rdf:RDF>
  </metadata>
  <defs id="defs8"/>
  <sodipodi:namedview pagecolor="#ffffff" bordercolor="#666666" borderopacity="1" objecttolerance="10" gridtolerance="10" guidetolerance="10" inkscape:pageopacity="0" inkscape:pageshadow="2" inkscape:window-width="1600" inkscape:window-height="853" id="namedview6" showgrid="true" inkscape:zoom="5.17" inkscape:cx="22.866728" inkscape:cy="61.000073" inkscape:window-x="-4" inkscape:window-y="-4" inkscape:window-maximized="1" inkscape:current-layer="svg2" inkscape:snap-grids="false" showguides="true" inkscape:guide-bbox="true" inkscape:snap-to-guides="false">
    <inkscape:grid type="xygrid" id="grid3807"/>
  </sodipodi:namedview>
  <path inkscape:connector-curvature="0" id="path4530" d="m 64.497925,2.8355568 c -0.978086,0 -1.79598,0.7826777 -1.79598,1.7607649 0,0.4279126 0.205159,0.8559751 0.457799,1.1621048 0.02376,0.7814459 0,1.5662017 0,2.3946401 l -1.197321,0.035215 -46.202467,0 0,4.5075584 c 0.214862,0.354722 0.709783,0.924791 1.232535,1.619903 0.522751,0.695113 1.077163,1.497969 1.443827,2.359425 0.708393,1.089835 0.704306,55.745813 0.704306,55.745813 0,0 0.05416,5.627815 2.288994,5.704879 l 23.559033,-0.140862 c -0.06633,-1.083407 0.162728,-1.826002 0.528229,-2.359425 -0.79819,-1.206911 -1.26775,-2.637744 -1.26775,-4.19062 0,-4.215205 3.426512,-7.641719 7.641719,-7.641719 0.740035,0 1.435776,0.119984 2.112918,0.316938 L 58.476109,17.41469 c 0.04154,-0.0741 0.06673,-0.138407 0.105649,-0.211292 l 1.126889,0 0,-2.25378 2.253779,0 c 0,0 3.82716,0.05273 3.908897,-6.2683222 l 0,-2.9580848 c 0.252642,-0.3061298 0.387369,-0.6989769 0.387369,-1.1268895 0,-0.9780872 -0.782678,-1.7607649 -1.760765,-1.7607649 z m -0.03522,0.1760766 c 0.595849,0 1.091674,0.4958246 1.091674,1.0916742 0,0.5958495 -0.495825,1.0564588 -1.091674,1.0564588 -0.59585,0 -1.056459,-0.4606093 -1.056459,-1.0564588 0,-0.5958496 0.460609,-1.0916742 1.056459,-1.0916742 z" style="fill:#000000;stroke:none"/>
  <path inkscape:connector-curvature="0" id="path4549" d="m 62.878021,2.2368968 c -1.126887,-0.00237 2.9e-5,1.1293146 -1.126889,1.1268895 L 16.675554,3.2933557 c -1.126887,-0.00237 -1.124464,3.27e-5 -1.12689,1.1268895 l 0,3.3806684 47.329357,0.070431 0,-2.253779 2.253779,0.035215 1.12689,0 c 0,0 -0.0021,-1.3969564 0,-2.2537789 0.0024,-1.126886 -3.2e-5,-1.1244633 -1.12689,-1.1268895 -1.126887,-0.00237 -1.067925,-0.032533 -2.253779,-0.035215 z m 1.584689,0.7747366 c 0.595849,0 1.091674,0.4958246 1.091674,1.0916742 0,0.5958495 -0.495825,1.0564588 -1.091674,1.0564588 -0.59585,0 -1.056459,-0.4606093 -1.056459,-1.0564588 0,-0.5958496 0.460609,-1.0916742 1.056459,-1.0916742 z" style="fill:#000000;stroke:none"/>
  <path style="fill:#000000;fill-opacity:1;stroke:none" d="m 59.103497,71.436863 c 0,3.910698 -3.170247,7.080944 -7.080944,7.080944 -3.910697,0 -7.080943,-3.170246 -7.080943,-7.080944 0,-3.910697 3.170246,-7.080944 7.080943,-7.080944 3.910697,0 7.080944,3.170247 7.080944,7.080944 z" id="path4551" inkscape:connector-curvature="0"/>
</svg>