<svg xmlns="http://www.w3.org/2000/svg" xmlns:xlink="http://www.w3.org/1999/xlink" version="1.1" id="Your_Icon" x="0px" y="0px" width="100px" height="100px" viewBox="0 0 100 100" enable-background="new 0 0 100 100" xml:space="preserve">
<g transform="translate(0.000000,1200.000000) scale(0.100000,-0.100000)">
	<path fill="#000000" d="M261.992,11847.431c-8.926-2.783-16.025-9.121-19.863-17.373l-2.207-4.795l-0.283-66.416l-0.293-66.504   l-108.154-0.195l-108.154-0.283l-5.381-2.686c-6.328-3.076-12.666-9.502-15.547-15.84L0,11668.827v-226.963v-226.973l2.207-4.414   c5.186-10.459,13.242-16.406,24.756-18.135c4.512-0.674,47.51-0.957,135.518-0.771l128.789,0.293v-6.24   c0-15.645,6.719-27.256,19.092-33.018c4.326-2.012,5.469-2.012,64.395-2.012c59.6,0,59.98,0,64.492,2.109   c6.338,2.881,13.535,9.98,16.221,15.938l2.305,4.99l0.283,87.139l0.195,87.041h36.475h36.465v-51.826v-51.816h-20.635h-20.635   v-10.557v-10.557l119.775,0.186l119.668,0.293l0.293,8.154c0.479,13.721,2.588,12.48-21.406,12.48h-20.635l0.195,51.816   l0.283,51.826h139.16c87.715,0,141.553,0.391,145.781,0.957c11.416,1.729,19.57,7.686,24.756,18.145l2.207,4.414v226.963v226.973   l-2.109,4.512c-2.881,6.328-9.219,12.764-15.547,15.83l-5.381,2.686l-355.566,0.195   C336.562,11848.583,265.068,11848.388,261.992,11847.431z M974.473,11826.317c1.436-0.771,3.066-2.5,3.74-3.936   c0.869-1.924,1.152-54.414,1.152-224.57v-222.168l-2.783-3.066l-2.783-3.174l-257.773-0.283l-257.773-0.195v5.283v5.273h255.283   h255.273v218.809v218.809H619.482H270.156v-62.373v-62.383h-4.805h-4.795v64.59c0,59.688,0.195,64.678,1.729,66.504   c0.859,1.152,2.49,2.5,3.545,3.066c1.348,0.771,99.814,1.064,353.936,1.152C922.646,11827.655,972.168,11827.47,974.473,11826.317z    M959.023,11598.583l0.186-208.545H708.828H458.545l-0.576,4.316c-1.445,10.273-9.6,20.732-19.004,24.287   c-6.816,2.49-12.959,2.969-40.889,3.066h-23.32v122.363v122.266l-2.109,5.566c-2.588,7.002-9.688,14.678-16.406,17.656   c-4.893,2.305-5.566,2.305-40.215,2.588l-35.312,0.293v56.904c0,31.289,0.283,57.197,0.674,57.49   c0.283,0.381,152.871,0.576,338.955,0.479l338.389-0.283L959.023,11598.583z M350.674,11668.251l2.969-2.969v-121.787v-121.787   h-4.316c-2.393,0-4.512-0.098-4.795-0.195c-0.293-0.186-0.674,53.457-0.771,119.199l-0.186,119.482l-156.143,0.283l-156.24,0.195   v-208.252v-208.252H161.23H291.27v-15.84v-15.83H160.273c-142.041,0-134.453-0.293-138.105,4.99   c-1.338,1.914-1.533,24.473-1.533,224.375c0.098,238.965-0.195,225.146,4.893,228.018c1.924,1.064,31.289,1.25,162.285,1.348   h159.883L350.674,11668.251z M333.301,11536.2l0.195-114.492h-4.033c-17.656-0.098-29.268-6.328-35.225-19.102l-2.49-5.371   l-0.293-71.211l-0.283-71.299H166.025H40.791v197.5c0,108.643,0.283,197.891,0.664,198.174c0.293,0.391,66.123,0.576,146.064,0.488   l145.498-0.293L333.301,11536.2z M431.387,11399.159c6.133-3.174,5.752,4.99,5.752-113.057c0-116.602,0.293-111.23-5.273-113.721   c-1.826-0.869-16.992-1.152-57.686-1.152h-55.273l-3.262,3.262l-3.262,3.262v107.109c0,117.266-0.293,111.035,5.566,114.199   C321.885,11401.269,427.256,11401.269,431.387,11399.159z M666.504,11296.278v-52.109h-57.1h-57.1v52.109v52.012h57.1h57.1   V11296.278z"/>
	<path fill="#000000" d="M181.387,11234.091c-3.359-3.262-3.271-8.926,0-12.002c5.371-5.078,13.906-1.436,13.906,5.957   C195.293,11235.624,186.66,11239.462,181.387,11234.091z"/>
	<path fill="#000000" d="M322.939,11295.985v-94.043h51.816h51.826v94.043v94.053h-51.826h-51.816V11295.985z M416.797,11296.278   l-0.293-83.301l-41.455-0.293l-41.553-0.186v83.486v83.496h41.748h41.738L416.797,11296.278z"/>
	<path fill="#000000" d="M371.309,11193.876c-5.664-2.49-6.533-10.166-1.631-14.014c3.545-2.783,7.578-2.49,10.938,0.869   c3.457,3.457,3.643,7.578,0.674,11.035C378.506,11194.833,375.146,11195.507,371.309,11193.876z"/>
</g>
</svg>