<svg xmlns="http://www.w3.org/2000/svg" xmlns:xlink="http://www.w3.org/1999/xlink" xmlns:sketch="http://www.bohemiancoding.com/sketch/ns" width="100px" height="70px" viewBox="0 0 100 70" version="1.1">
    <title>Microwave Oven</title>
    <description>Created with Sketch (http://www.bohemiancoding.com/sketch)</description>
    <defs/>
    <g id="Page-1" stroke="none" stroke-width="1" fill="none" fill-rule="evenodd" sketch:type="MSPage">
        <g id="Microwave-Oven" sketch:type="MSArtboardGroup" transform="translate(0.000000, -30.000000)" fill="#000000">
            <path d="M0,30 L0,100 L100,100 L100,30 L0,30 Z M10,40 L10,90 L70,90 L70,40 L10,40 Z M77,40 L77,48 L94,48 L94,40 L77,40 Z M78.25,55.5 C78.940356,55.5 79.5,54.940356 79.5,54.25 C79.5,53.559644 78.940356,53 78.25,53 C77.559644,53 77,53.559644 77,54.25 C77,54.940356 77.559644,55.5 78.25,55.5 Z M85.25,55.5 C85.940356,55.5 86.5,54.940356 86.5,54.25 C86.5,53.559644 85.940356,53 85.25,53 C84.559644,53 84,53.559644 84,54.25 C84,54.940356 84.559644,55.5 85.25,55.5 Z M78.25,60.5 C78.940356,60.5 79.5,59.940356 79.5,59.25 C79.5,58.559644 78.940356,58 78.25,58 C77.559644,58 77,58.559644 77,59.25 C77,59.940356 77.559644,60.5 78.25,60.5 Z M85.25,60.5 C85.940356,60.5 86.5,59.940356 86.5,59.25 C86.5,58.559644 85.940356,58 85.25,58 C84.559644,58 84,58.559644 84,59.25 C84,59.940356 84.559644,60.5 85.25,60.5 Z M78.25,65.5 C78.940356,65.5 79.5,64.940356 79.5,64.25 C79.5,63.559644 78.940356,63 78.25,63 C77.559644,63 77,63.559644 77,64.25 C77,64.940356 77.559644,65.5 78.25,65.5 Z M85.25,65.5 C85.940356,65.5 86.5,64.940356 86.5,64.25 C86.5,63.559644 85.940356,63 85.25,63 C84.559644,63 84,63.559644 84,64.25 C84,64.940356 84.559644,65.5 85.25,65.5 Z M92.25,55.5 C92.940356,55.5 93.5,54.940356 93.5,54.25 C93.5,53.559644 92.940356,53 92.25,53 C91.559644,53 91,53.559644 91,54.25 C91,54.940356 91.559644,55.5 92.25,55.5 Z M92.25,60.5 C92.940356,60.5 93.5,59.940356 93.5,59.25 C93.5,58.559644 92.940356,58 92.25,58 C91.559644,58 91,58.559644 91,59.25 C91,59.940356 91.559644,60.5 92.25,60.5 Z M92.25,65.5 C92.940356,65.5 93.5,64.940356 93.5,64.25 C93.5,63.559644 92.940356,63 92.25,63 C91.559644,63 91,63.559644 91,64.25 C91,64.940356 91.559644,65.5 92.25,65.5 Z M92.25,65.5" id="Rectangle-30" sketch:type="MSShapeGroup"/>
        </g>
    </g>
</svg>