<svg xmlns="http://www.w3.org/2000/svg" xmlns:xlink="http://www.w3.org/1999/xlink" version="1.1" id="Layer_1" x="0px" y="0px" width="100px" height="100px" viewBox="0 0 100 100" enable-background="new 0 0 100 100" xml:space="preserve">
<path d="M93.363,29.421c-0.973-0.973-2.266-1.509-3.641-1.509H10.277c-2.837,0.005-5.145,2.314-5.145,5.147v47.7  c0,2.838,2.309,5.146,5.222,5.146h79.371c2.836-0.004,5.143-2.314,5.143-5.146V33.061C94.869,31.688,94.336,30.395,93.363,29.421z   M90.93,80.76c0,0.664-0.543,1.207-1.211,1.207H10.28c-0.667,0-1.209-0.541-1.209-1.207v-47.7c0-0.666,0.543-1.208,1.209-1.209  h79.442c0.322,0,0.625,0.126,0.854,0.355c0.229,0.228,0.354,0.53,0.354,0.854V80.76z M27.547,38.401h5.009v-0.985h-5.009V38.401z   M27.547,77.969h5.009v-0.984h-5.009V77.969z M37.565,38.401h5.01v-0.985h-5.01V38.401z M37.565,77.969h5.01v-0.984h-5.01V77.969z   M17.527,38.401h5.01v-0.985h-5.01V38.401z M47.584,77.969h5.009v-0.984h-5.009V77.969z M17.527,77.969h5.01v-0.984h-5.01V77.969z   M13.227,64.93h0.984v-5.01h-0.984V64.93z M13.227,74.947h0.984v-5.008h-0.984V74.947z M13.227,44.893h0.984v-5.011h-0.984V44.893z   M13.227,54.91h0.984v-5.009h-0.984V54.91z M67.621,77.969h5.012v-0.984h-5.012V77.969z M77.641,38.401h5.01v-0.985h-5.01V38.401z   M86.295,64.6h0.984v-5.01h-0.984V64.6z M86.295,74.619h0.984v-5.01h-0.984V74.619z M86.289,39.599l0.006,4.963h0.984v-4.863  c-0.002-0.064-0.004-0.129-0.01-0.192L86.289,39.599z M47.584,38.401h5.009v-0.985h-5.009V38.401z M86.295,54.58h0.984v-5.009  h-0.984V54.58z M57.604,38.401h5.008v-0.985h-5.008V38.401z M57.604,77.969h5.008v-0.984h-5.008V77.969z M67.621,38.401h5.012  v-0.985h-5.012V38.401z M77.641,77.969h5.01v-0.984h-5.01V77.969z M12.177,17.927c0.08-1.085,1.071-1.939,2.139-1.858l72.62,5.792  c0.531,0.037,1.016,0.281,1.369,0.687c0.354,0.408,0.525,0.925,0.486,1.456l-0.473,2.39l1.961,0.143l0.477-2.39  c0.076-1.057-0.264-2.082-0.963-2.886c-0.695-0.805-1.662-1.289-2.707-1.363l-72.619-5.791c-2.23-0.168-4.097,1.525-4.252,3.68  l-0.907,9.001l1.966,0.142L12.177,17.927z M16.512,25.06c-1.123-0.22-1.448-0.326-1.448-0.84v-0.861c0-0.22,0.105-0.357,0.252-0.357  c0.22,0,0.273,0.21,0.399,0.588c0.199,0.588,0.315,0.935,0.861,0.997l0.293-2.131c-1.049-0.399-1.584-1.029-1.584-1.848  c0-1.134,0.818-1.994,2.12-2.089l0.158-1.123h0.577l-0.157,1.134c0.914,0.272,1.091,0.347,1.091,0.704c0,0.021,0,0.042,0,0.062  l-0.031,0.662c-0.011,0.189-0.095,0.283-0.221,0.283c-0.168,0-0.21-0.167-0.336-0.43c-0.157-0.346-0.293-0.588-0.577-0.704  l-0.252,1.806c1.134,0.525,1.69,1.176,1.69,2.037c0,1.123-0.913,2.068-2.257,2.131l-0.21,1.491h-0.578L16.512,25.06z M17.332,19.033  c-0.021,0-0.031,0-0.052,0c-0.578,0-0.955,0.347-0.955,0.84c0,0.378,0.251,0.651,0.777,0.83L17.332,19.033z M18.14,23.622  c0-0.44-0.251-0.776-0.724-0.945l-0.263,1.932C17.73,24.587,18.14,24.147,18.14,23.622z"/>
</svg>