<svg xmlns="http://www.w3.org/2000/svg" xmlns:xlink="http://www.w3.org/1999/xlink" xmlns:sketch="http://www.bohemiancoding.com/sketch/ns" width="100px" height="100px" viewBox="0 0 100 100" version="1.1">
    <title>Refridgerator</title>
    <description>Created with Sketch (http://www.bohemiancoding.com/sketch)</description>
    <defs/>
    <g id="Page-1" stroke="none" stroke-width="1" fill="none" fill-rule="evenodd" sketch:type="MSPage">
        <g id="Refridgerator" sketch:type="MSArtboardGroup" fill="#000000">
            <path d="M21.9963074,34 C20.8937773,34 20,34.8954434 20,35.9932301 L20,95.9954293 C20,98.2070926 21.7956808,100 24.0065556,100 L75.9934444,100 C78.206204,100 80,98.2004301 80,95.9954293 L80,35.9932301 C80,34.8923995 79.1052696,34 78.0036926,34 L21.9963074,34 Z M28.0048815,40 C26.897616,40 26,40.8982124 26,41.9907951 L26,58.0092049 C26,59.1086907 26.8938998,60 28.0048815,60 L28.9951185,60 C30.102384,60 31,59.1017876 31,58.0092049 L31,41.9907951 C31,40.8913093 30.1061002,40 28.9951185,40 L28.0048815,40 Z M28.5,41 C27.6715729,41 27,41.6743222 27,42.5001649 L27,46 L30,46 L30,42.5001649 C30,41.6716467 29.3342028,41 28.5,41 Z M28.5,41" id="Rectangle-1" sketch:type="MSShapeGroup"/>
            <path d="M24.0065556,0 C21.793796,0 20,1.78902751 20,4.0042577 L20,29.9982567 C20,31.103789 20.8947304,32 21.9963074,32 L78.0036926,32 C79.1062227,32 80,31.1107383 80,29.9982567 L80,4.0042577 C80,1.79276724 78.2043192,0 75.9934444,0 L24.0065556,0 Z M28.0048815,16 C26.897616,16 26,16.8874333 26,17.999615 L26,24.000385 C26,25.1047419 26.8938998,26 28.0048815,26 L28.9951185,26 C30.102384,26 31,25.1125667 31,24.000385 L31,17.999615 C31,16.8952581 30.1061002,16 28.9951185,16 L28.0048815,16 Z M28.5,17 C27.6715729,17 27,17.6743222 27,18.5001649 L27,22 L30,22 L30,18.5001649 C30,17.6716467 29.3342028,17 28.5,17 Z M28.5,17" id="Rectangle-1" sketch:type="MSShapeGroup"/>
        </g>
    </g>
</svg>