<svg xmlns="http://www.w3.org/2000/svg" xmlns:xlink="http://www.w3.org/1999/xlink" version="1.1" id="Your_Icon" x="0px" y="0px" width="100px" height="100px" viewBox="0 0 100 100" enable-background="new 0 0 100 100" xml:space="preserve">
<path fill="none" d="M45.997,37.75c-2.896,0-5.247,2.351-5.247,5.247c0,2.9,2.351,5.251,5.247,5.251c2.9,0,5.251-2.351,5.251-5.251  C51.248,40.101,48.897,37.75,45.997,37.75z"/>
<path d="M45.997,11.844c-17.205,0-31.152,13.948-31.152,31.153c0,17.209,13.948,31.156,31.152,31.156  c17.209,0,31.157-13.947,31.157-31.156C77.154,25.792,63.206,11.844,45.997,11.844z M45.997,50.344  c-4.056,0-7.348-3.287-7.348-7.347c0-4.056,3.292-7.348,7.348-7.348c4.061,0,7.348,3.292,7.348,7.348  C53.345,47.058,50.058,50.344,45.997,50.344z"/>
<path d="M45.997,37.631c-2.962,0-5.366,2.404-5.366,5.366c0,2.966,2.404,5.37,5.366,5.37c2.966,0,5.37-2.404,5.37-5.37  C51.367,40.035,48.963,37.631,45.997,37.631z"/>
<path d="M82.392,42.092c-0.053-1.213-1.05-2.184-2.276-2.184c-1.266,0-2.289,1.024-2.289,2.285c0,1.266,1.023,2.29,2.289,2.29  c0.646,0,1.227-0.268,1.64-0.699c9.026,3.696,14.014,10.784,13.39,19.156c-0.615,8.239-6.486,15.121-14.291,16.756  c-0.408-1.758-1.981-3.072-3.862-3.072v-2.118c0-1.832-1.485-3.322-3.322-3.322h-9.976c-5.019,3.498-11.113,5.56-17.696,5.56  c-6.579,0-12.678-2.062-17.697-5.56h-9.976c-1.832,0-3.317,1.49-3.317,3.322v12.178c0,1.832,1.485,3.317,3.317,3.317h55.344  c1.837,0,3.322-1.485,3.322-3.317v-2.118c1.885,0,3.458-1.318,3.862-3.076c0.035,0,0.07,0.009,0.105,0.009  c0.062,0,0.119-0.009,0.181-0.022c8.626-1.767,15.126-9.334,15.803-18.403C97.628,53.859,92.209,46.091,82.392,42.092z"/>
<g>
	<path d="M15.394,26.223c-0.154,0-0.308-0.04-0.453-0.119c-0.431-0.25-0.576-0.8-0.33-1.23c2.887-4.988,6.978-9.268,11.838-12.384   c0.417-0.268,0.976-0.149,1.244,0.272c0.272,0.417,0.149,0.976-0.268,1.244c-4.619,2.962-8.512,7.031-11.254,11.769   C16.005,26.065,15.706,26.223,15.394,26.223z"/>
</g>
<g>
	<path d="M75.734,24.852c-0.299,0-0.589-0.145-0.76-0.413c-2.962-4.619-7.031-8.508-11.769-11.254c-0.431-0.246-0.576-0.8-0.33-1.23   c0.251-0.431,0.8-0.576,1.235-0.325c4.983,2.883,9.264,6.979,12.379,11.834c0.272,0.422,0.149,0.976-0.272,1.248   C76.068,24.808,75.901,24.852,75.734,24.852z"/>
</g>
<g>
	<path d="M83.569,26.197c-0.338,0-0.659-0.189-0.812-0.514c-4.214-8.921-11.5-16.005-20.518-19.942   c-0.457-0.198-0.664-0.729-0.466-1.187c0.202-0.457,0.729-0.664,1.187-0.466c9.417,4.113,17.028,11.509,21.423,20.821   c0.215,0.453,0.021,0.989-0.431,1.2C83.829,26.17,83.697,26.197,83.569,26.197z"/>
</g>
<g>
	<path d="M7.901,27.282c-0.119,0-0.242-0.026-0.36-0.075c-0.457-0.202-0.664-0.734-0.466-1.187   C11.188,16.604,18.58,8.992,27.896,4.598c0.448-0.215,0.984-0.022,1.2,0.431c0.211,0.448,0.018,0.984-0.431,1.2   c-8.921,4.209-16,11.496-19.938,20.513C8.578,27.08,8.249,27.282,7.901,27.282z"/>
</g>
</svg>