<svg xmlns="http://www.w3.org/2000/svg" xmlns:xlink="http://www.w3.org/1999/xlink" xmlns:sketch="http://www.bohemiancoding.com/sketch/ns" width="100px" height="100px" viewBox="0 0 100 100" version="1.1">
    <title>Stove</title>
    <description>Created with Sketch (http://www.bohemiancoding.com/sketch)</description>
    <defs/>
    <g id="Page-1" stroke="none" stroke-width="1" fill="none" fill-rule="evenodd" sketch:type="MSPage">
        <g id="Stove" sketch:type="MSArtboardGroup" fill="#000000">
            <rect d="M14,38 L14,95.0049701 C14,97.7636489 16.2446579,100 19.0032113,100 L81.9967887,100 C84.759986,100 87,97.756759 87,95.0049701 L87,38 L14,38 Z M14,38" id="Rectangle-54" sketch:type="MSShapeGroup" x="14" y="38" width="73" height="62"/>
            <path d="M14,25 L14,37 L87,37 L87,25 L14,25 Z M44,33 C45.1045696,33 46,32.1045696 46,31 C46,29.8954304 45.1045696,29 44,29 C42.8954304,29 42,29.8954304 42,31 C42,32.1045696 42.8954304,33 44,33 Z M37,33 C38.1045696,33 39,32.1045696 39,31 C39,29.8954304 38.1045696,29 37,29 C35.8954304,29 35,29.8954304 35,31 C35,32.1045696 35.8954304,33 37,33 Z M30,33 C31.1045696,33 32,32.1045696 32,31 C32,29.8954304 31.1045696,29 30,29 C28.8954304,29 28,29.8954304 28,31 C28,32.1045696 28.8954304,33 30,33 Z M30,33" id="Rectangle-55" sketch:type="MSShapeGroup"/>
            <rect d="M27,22 L27,24 L41,24 L41,22 L27,22 Z M27,22" id="Rectangle-56" sketch:type="MSShapeGroup" x="27" y="22" width="14" height="2"/>
            <path d="M33,14 L33,18 L34,18 L34,14 L33,14 Z M36.8142987,14.7016835 L34.9364125,18.2334738 L35.81936,18.7029454 L37.6972463,15.171155 L36.8142987,14.7016835 Z M39.7664281,17.0018125 L36.48982,19.2961182 L37.0633964,20.1152703 L40.3400046,17.8209645 L39.7664281,17.0018125 Z M26.6599954,17.8209645 L29.9366036,20.1152703 L30.51018,19.2961182 L27.2335719,17.0018125 L26.6599954,17.8209645 Z M29.3027537,15.171155 L31.18064,18.7029454 L32.0635875,18.2334738 L30.1857013,14.7016835 L29.3027537,15.171155 Z M29.3027537,15.171155" id="Rectangle-58" sketch:type="MSShapeGroup"/>
            <rect d="M59,22 L59,24 L73,24 L73,22 L59,22 Z M59,22" id="Rectangle-56" sketch:type="MSShapeGroup" x="59" y="22" width="14" height="2"/>
            <path d="M65,14 L65,18 L66,18 L66,14 L65,14 Z M68.8142987,14.7016835 L66.9364125,18.2334738 L67.81936,18.7029454 L69.6972463,15.171155 L68.8142987,14.7016835 Z M71.7664281,17.0018125 L68.48982,19.2961182 L69.0633964,20.1152703 L72.3400046,17.8209645 L71.7664281,17.0018125 Z M58.6599954,17.8209645 L61.9366036,20.1152703 L62.51018,19.2961182 L59.2335719,17.0018125 L58.6599954,17.8209645 Z M61.3027537,15.171155 L63.18064,18.7029454 L64.0635875,18.2334738 L62.1857013,14.7016835 L61.3027537,15.171155 Z M61.3027537,15.171155" id="Rectangle-58" sketch:type="MSShapeGroup"/>
        </g>
    </g>
</svg>