<svg xmlns="http://www.w3.org/2000/svg" xmlns:xlink="http://www.w3.org/1999/xlink" version="1.1" id="Layer_1" x="0px" y="0px" width="100px" height="100px" viewBox="0 0 100 100" enable-background="new 0 0 100 100" xml:space="preserve">
<path d="M173.639,42.845c-0.061-0.117-0.115-0.223-0.146-0.28C173.518,42.61,173.562,42.699,173.639,42.845z"/>
<g>
	<path fill="#000000" d="M55.465,22.629C55.326,22.626,55.297,22.625,55.465,22.629L55.465,22.629z"/>
	<path fill="#000000" d="M20,12.421V22h64v-9.695C84,12.305,57.587,1.237,20,12.421z M29.834,19c-1.197,0-2.167-0.97-2.167-2.167   c0-1.197,0.97-2.167,2.167-2.167c1.197,0,2.167,0.97,2.167,2.167C32.001,18.03,31.031,19,29.834,19z M35.834,19   c-1.197,0-2.167-0.97-2.167-2.167c0-1.197,0.97-2.167,2.167-2.167c1.197,0,2.167,0.97,2.167,2.167   C38.001,18.03,37.031,19,35.834,19z M73.834,18.951c-1.197,0-2.167-0.97-2.167-2.167c0-1.197,0.97-2.167,2.167-2.167   s2.167,0.97,2.167,2.167C76.001,17.981,75.031,18.951,73.834,18.951z"/>
	<path fill="#000000" d="M20,92h64V26H20V92z M63,86H41c-0.829,0-1.5-0.672-1.5-1.5S40.171,83,41,83h22c0.828,0,1.5,0.672,1.5,1.5   S63.828,86,63,86z M30,39.5c0-0.829,0.671-1.5,1.5-1.5h42c0.828,0,1.5,0.671,1.5,1.5v35c0,0.828-0.672,1.5-1.5,1.5h-42   c-0.829,0-1.5-0.672-1.5-1.5V39.5z"/>
	<g>
		<path fill="#000000" d="M33,41v32h39V41H33z M38,58.25c0,0.414-0.336,0.75-0.75,0.75h-0.5C36.336,59,36,58.664,36,58.25v-3.5    c0-0.414,0.336-0.75,0.75-0.75h0.5c0.414,0,0.75,0.336,0.75,0.75V58.25z"/>
	</g>
</g>
</svg>